<?xml version="1.0" encoding="utf-8"?>
<!-- Generator: Adobe Illustrator 24.1.0, SVG Export Plug-In . SVG Version: 6.00 Build 0)  -->
<svg version="1.1" id="Layer_1" xmlns="http://www.w3.org/2000/svg" xmlns:xlink="http://www.w3.org/1999/xlink" x="0px" y="0px"
	 viewBox="0 0 100 100" style="enable-background:new 0 0 100 100;" xml:space="preserve">
<style type="text/css">
	.st0{fill:#4071B8;}
	.st1{fill:#FFFFFF;}
</style>
<g>
	<g>
		<path class="st0" d="M87.53,31.74v36.51c0,11-8.95,19.95-19.94,19.95H31.08c-11,0-19.94-8.95-19.94-19.95V31.74
			c0-11,8.95-19.95,19.94-19.95h36.51C78.59,11.8,87.53,20.75,87.53,31.74z"/>
	</g>
	<path class="st1" d="M66.18,36.66V25.62h-9.76c-7.74,0-14.02,6.27-14.02,14.02v10.1h-9.92v11.53h9.92V88.2h12.11V61.09h9.07
		l1.73-11.44h-10.8V41.5c0-2.67,2.16-4.84,4.84-4.84H66.18z"/>
</g>
</svg>
