<?xml version="1.0" encoding="utf-8"?>
<!-- Generator: Adobe Illustrator 24.1.0, SVG Export Plug-In . SVG Version: 6.00 Build 0)  -->
<svg version="1.1" id="Layer_1" xmlns="http://www.w3.org/2000/svg" xmlns:xlink="http://www.w3.org/1999/xlink" x="0px" y="0px"
	 viewBox="0 0 100 100" style="enable-background:new 0 0 100 100;" xml:space="preserve">
<style type="text/css">
	.st0{fill:#0A78B5;}
	.st1{fill:#FFFFFF;}
</style>
<g>
	<g>
		<path class="st0" d="M87.53,31.74v36.51c0,11-8.95,19.95-19.94,19.95H31.08c-11,0-19.94-8.95-19.94-19.95V31.74
			c0-11,8.95-19.95,19.94-19.95h36.51C78.59,11.8,87.53,20.75,87.53,31.74z"/>
	</g>
	<g>
		<path class="st1" d="M25.06,41.99h10.05v33.17H25.06V41.99z"/>
		<path class="st1" d="M41.75,52.28c0-3.49,0-7.72-0.08-10.78h9.74c0.22,1.1,0.35,3.57,0.39,4.86c1.46-2.84,4.6-5.84,11.98-5.84
			c8.04,0,10.66,5.81,10.66,16.25v18.39H64.39V57.92c0-5.06-2.03-8.63-5.29-8.63c-5.66,0-7.29,3.62-7.29,11.12v14.75H41.75V52.28z"
			/>
		<circle class="st1" cx="30.08" cy="30.7" r="5.86"/>
	</g>
</g>
</svg>
